<svg xmlns="http://www.w3.org/2000/svg" xmlns:xlink="http://www.w3.org/1999/xlink" version="1.1" id="Layer_1" x="0px" y="0px" width="100px" height="100px" viewBox="0 0 100 100" enable-background="new 0 0 100 100" xml:space="preserve">
<path d="M79.013,60.938H41.624c-4.861,0-8.816,4.515-8.816,10.066c0,5.55,3.955,10.065,8.816,10.065h37.389  c4.862,0,8.817-4.515,8.817-10.065C87.83,65.453,83.875,60.938,79.013,60.938z M35.9,71.004c0-3.846,2.568-6.974,5.725-6.974h18.695  v13.948H41.624C38.468,77.978,35.9,74.849,35.9,71.004z"/>
<path d="M26.707,61.944l26.438-26.438c3.437-3.437,3.041-9.427-0.884-13.352c-3.924-3.924-9.914-4.321-13.351-0.883L12.472,47.709  c-3.438,3.438-3.041,9.427,0.883,13.352C17.279,64.985,23.269,65.382,26.707,61.944z M50.075,24.34  c2.719,2.719,3.116,6.748,0.884,8.98L37.74,46.539l-9.863-9.863l13.219-13.219C43.328,21.225,47.356,21.621,50.075,24.34z"/>
<path d="M69.821,27.711c-7.663,2.025-12.249,9.906-10.225,17.569s9.906,12.249,17.569,10.224  c7.662-2.025,12.249-9.906,10.224-17.569C85.365,30.273,77.484,25.686,69.821,27.711z M70.434,30.03  c5.992-1.583,12.145,1.687,14.272,7.374l-23.039,6.088C60.708,37.496,64.441,31.613,70.434,30.03z M76.553,53.185  c-5.993,1.584-12.145-1.687-14.272-7.374l23.039-6.088C86.279,45.719,82.545,51.601,76.553,53.185z"/>
</svg>