<svg xmlns="http://www.w3.org/2000/svg" xmlns:xlink="http://www.w3.org/1999/xlink" version="1.1" id="Layer_1" x="0px" y="0px" width="100px" height="100px" viewBox="0 0 100 100" enable-background="new 0 0 100 100" xml:space="preserve">
<g id="Layer_2">
</g>
<path d="M86.365,93.988c-6.669,0-12.093-5.425-12.093-12.093c0-6.669,5.424-12.094,12.093-12.094s12.094,5.425,12.094,12.094  C98.459,88.563,93.034,93.988,86.365,93.988L86.365,93.988z M86.365,74.721c-3.956,0-7.174,3.219-7.174,7.175  c0,3.955,3.218,7.174,7.174,7.174c3.957,0,7.174-3.219,7.174-7.174C93.539,77.939,90.322,74.721,86.365,74.721L86.365,74.721z"/>
<path d="M70.334,84.005c-1.165,0-2.11-0.944-2.11-2.109c0-10.004,8.14-18.142,18.142-18.142c4.847,0,9.402,1.887,12.829,5.314  c0.823,0.824,0.823,2.158,0,2.982s-2.161,0.824-2.983,0c-2.63-2.63-6.126-4.078-9.846-4.078c-7.678,0-13.922,6.246-13.922,13.923  C72.443,83.061,71.499,84.005,70.334,84.005L70.334,84.005z"/>
<path d="M36.482,19.379c-0.346-0.733-0.568-1.549-0.671-2.443c-0.299-2.613,0.385-4.971,2.052-7.066  c1.665-2.096,3.806-3.294,6.423-3.594c2.231-0.256,4.272,0.204,6.119,1.383c1.847,1.181,3.174,2.756,3.985,4.73l-2.487,0.285  c0.083,0.184,0.202,0.947,0.354,2.287c0.197,1.719-0.25,3.289-1.35,4.71c-1.095,1.418-2.541,2.228-4.324,2.431  c-2.168,0.249-4.03-0.474-5.581-2.169c-0.309-0.418-0.54-0.747-0.694-0.989L36.482,19.379z"/>
<path d="M76.702,35.365c-3.787,0.174-6.79,2.634-6.79,5.65c0,3.018,3.003,5.477,6.79,5.652V35.365z"/>
<path d="M75.871,58.085c-0.38-1.262-5.455-12.164-7.002-15.474c-0.346-0.743-1.091-1.217-1.91-1.217H63.26  c0.746-0.536,1.237-1.407,1.237-2.398c-0.001-1.631-1.322-2.952-2.953-2.952h-0.001l-10.517,0.005l-3.635-10.008  c-0.084-0.231-0.201-0.439-0.331-0.635c-0.325-0.657-0.795-1.219-1.477-1.591c-1.547-0.844-3.858-1.093-5.344-0.668  c-1.477,0.421-3.428,1.266-4.272,4.061l-4.63,19.652c-0.179,0.823-0.099,2.075,0.253,3.042c0.563,1.547,2.32,3.516,4.435,3.797  l12.55,1.122c-0.472-0.005-1.102-0.007-1.89,0.004H14.293c-1.342,0-2.471,1.16-2.43,2.43c0.035,1.087,1.466,3.323,2.55,4.866  C6.579,66.668,0.159,79.364,0.159,79.364s-0.172,0.39-0.158,0.843c0.035,1.165,0.944,2.11,2.109,2.11h4.26  c0.225,6.472,5.546,11.671,12.072,11.671c6.525,0,11.847-5.199,12.071-11.671H58.17c0.191,0,4.721-0.05,7.635-4.416  c0.69-0.939,9.503-12.968,10.091-15.322C76.407,60.535,76.402,59.862,75.871,58.085z M18.441,89.069  c-3.813,0-6.933-2.993-7.152-6.752h14.304C25.374,86.076,22.254,89.069,18.441,89.069z M34.323,76.429  c-0.188,0.51-0.672,0.826-1.186,0.826c-0.146,0-0.295-0.025-0.44-0.079c-0.655-0.243-0.989-0.972-0.746-1.627  c0.016-0.046,1.771-4.992-0.979-8.965c-1.722-2.488-6.834-2.486-8.658-2.275c-0.693,0.079-1.323-0.418-1.402-1.113  c-0.08-0.694,0.417-1.321,1.112-1.401c0.329-0.039,8.1-0.883,11.029,3.35C36.565,70.217,34.417,76.177,34.323,76.429z M71.824,61.48  c-0.528,1.44-6.519,9.979-9.448,13.962c-0.021,0.028-0.041,0.058-0.061,0.088c-1.632,2.471-4.071,2.565-4.146,2.568H48.136  c-3.042-2.212-6.409-5.89-5.788-11.11c0.703-5.906,7.79-9.182,8.156-10.829c0.169-0.76-0.22-1.079-0.559-1.215l6.869,0.614  l-5.607,16.634c-0.562,2.248,1.196,4.077,2.25,4.429c1.88,0.628,4.922,0.352,6.048-4.429c0.239-1.016,5.976-18.563,5.976-18.563  c0.844-2.742-1.476-5.836-4.635-6.292l-16.271-2.68l0.401-1.888c-0.044-0.058-4.608-9.253-4.608-9.253  c-0.31-0.627-0.053-1.386,0.574-1.695c0.625-0.311,1.386-0.053,1.695,0.573l4.258,8.598c0.343,0.66,1.316,0.964,2.061,0.964  c0,0,0,0,0.001,0l10.251-0.005c-0.421,0.386-0.689,0.936-0.689,1.552c0,1.165,0.945,2.109,2.11,2.109h4.984  c2.909,6.246,5.942,12.872,6.214,13.684C72.123,60.277,72.123,60.277,71.824,61.48z"/>
</svg>