<svg xmlns="http://www.w3.org/2000/svg" xmlns:xlink="http://www.w3.org/1999/xlink" version="1.1" id="Layer_1" x="0px" y="0px" width="100px" height="100px" viewBox="0 0 100 100" enable-background="new 0 0 100 100" xml:space="preserve">
<path fill="#000000" d="M82.642,42.569c0-1.372-1.038-2.492-2.367-2.649H19.338c-1.328,0.158-2.366,1.278-2.366,2.649  c0,1.143,0.722,2.113,1.732,2.498v1.231c0,0.005,0.001,0.009,0.001,0.015v7.641c0,0.005-0.001,0.01-0.001,0.015v36.874  c0,5.044,4.103,9.145,9.146,9.145h43.914c4.969,0,9.068-4.069,9.139-9.077l0.003-32.705c-0.022-0.22,0-0.448,0-0.704l-0.016-10.016  c0-0.233-0.012-0.359,0.013-0.645c0-0.046-0.001-0.09,0-0.137c0.001-0.02,0.006-0.037,0.007-0.057h-0.003v-1.579  C81.917,44.684,82.642,43.712,82.642,42.569z M78.796,46.648h-0.013v5.722h0.013v38.471c0,3.879-3.154,7.035-7.033,7.035H27.851  c-3.877,0-7.034-3.135-7.039-6.953l0.011-0.127l-0.005-0.11V45.248h57.979V46.648z M79.961,43.136H19.652  c-0.313,0-0.567-0.255-0.567-0.567c0-0.314,0.254-0.57,0.567-0.57h2.551l0.036,0.056l0.09-0.056h55.522l0.102,0.062l0.035-0.062  h1.974c0.313,0,0.568,0.256,0.568,0.57C80.529,42.881,80.273,43.136,79.961,43.136z"/>
<g>
	<path fill="#000000" d="M80.519,49.361l-1.27,6.114c-0.036,0.174-0.921,4.255-4.23,4.335h-0.104c-3.271,0-4.506-4.332-4.518-4.375   l-0.718-2.595l-0.529,2.638c-0.01,0.044-0.907,4.332-4.057,4.332c-3.209,0-4.589-4.351-4.603-4.395l-0.664-2.15l-0.569,2.178   c-0.013,0.044-1.177,4.367-4.271,4.367c-3.129,0-4.58-4.359-4.594-4.402l-0.701-2.16l-0.534,2.207   c-0.009,0.043-1.087,4.355-4.146,4.355c-3.089,0-4.611-4.367-4.625-4.412l-0.849-2.49l-0.393,2.602   c-0.026,0.172-0.674,4.207-3.935,4.207c-3.343,0-4.702-4.258-4.716-4.301l-1.055-3.399l-0.198,3.554   c-0.01,0.174-0.281,4.24-4.152,4.24c-3.923,0-4.547-4.117-4.57-4.277l-1.278,0.071v31.169c0.1-0.076,0.194-0.157,0.303-0.229   c0.317-0.211,0.646-0.393,0.979-0.562V58.806c0.86,1.199,2.272,2.286,4.566,2.286c2.874,0,4.348-1.772,5.001-3.479   c0.869,1.502,2.482,3.386,5.12,3.386c2.55,0,4.005-1.844,4.71-3.555c0.867,1.554,2.514,3.648,5.092,3.648   c2.649,0,4.116-2.182,4.829-3.758c0.831,1.564,2.473,3.758,5.146,3.758c2.677,0,4.188-2.191,4.927-3.765   c0.814,1.565,2.444,3.765,5.18,3.765c2.659,0,4.063-2.059,4.747-3.627c0.797,1.559,2.366,3.627,5.074,3.627h0.12   c1.944-0.047,3.311-1.138,4.203-2.428v28.999c0.406,0.456,0.874,0.904,1.282,1.26L80.519,49.361z"/>
</g>
<g>
	<path fill="#000000" d="M28.492,34.296c0.845-1.938,0.912-4.124-0.153-5.656c-0.246-0.376-0.609-0.726-0.938-1.249   c-0.316-0.48-0.592-1.008-0.78-1.586c-0.388-1.157-0.289-2.506,0.164-3.607c0.441-1.088,1.21-2.049,1.8-2.789   c0.493-0.662,0.744-1.621,0.853-2.572c0.178-1.945-0.241-3.997-1.069-5.944c1.413,1.592,2.301,3.729,2.351,5.991   c0.023,1.135-0.188,2.308-0.854,3.411c-0.166,0.271-0.344,0.472-0.481,0.666c-0.148,0.201-0.289,0.402-0.422,0.606   c-0.262,0.408-0.491,0.823-0.653,1.245c-0.362,0.834-0.426,1.699-0.198,2.557c0.104,0.431,0.286,0.859,0.516,1.274   c0.201,0.385,0.552,0.82,0.821,1.362c0.546,1.05,0.699,2.282,0.486,3.388C29.709,32.498,29.214,33.508,28.492,34.296z"/>
</g>
<g>
	<path fill="#000000" d="M71.269,34.296c-0.723-0.788-1.218-1.798-1.441-2.903c-0.214-1.106-0.061-2.337,0.486-3.388   c0.27-0.542,0.619-0.977,0.82-1.362c0.231-0.415,0.412-0.843,0.517-1.274c0.229-0.858,0.164-1.723-0.197-2.557   c-0.163-0.422-0.392-0.837-0.653-1.245c-0.133-0.204-0.274-0.405-0.422-0.606c-0.138-0.193-0.316-0.395-0.481-0.666   c-0.668-1.103-0.879-2.275-0.855-3.411c0.05-2.263,0.938-4.399,2.352-5.991c-0.829,1.947-1.248,3.999-1.069,5.944   c0.108,0.951,0.359,1.91,0.853,2.572c0.59,0.739,1.36,1.7,1.801,2.789c0.453,1.101,0.552,2.451,0.163,3.607   c-0.188,0.578-0.464,1.105-0.779,1.586c-0.329,0.523-0.692,0.873-0.938,1.249C70.356,30.172,70.424,32.359,71.269,34.296z"/>
</g>
<g>
	<path fill="#000000" d="M39.877,34.296c-0.891-0.863-1.377-2.118-1.522-3.391c-0.128-1.285,0.098-2.601,0.562-3.798   c0.22-0.606,0.521-1.175,0.724-1.681c0.219-0.533,0.405-1.078,0.548-1.627c0.293-1.095,0.443-2.217,0.344-3.316   c-0.067-1.1-0.371-2.176-0.88-3.155c-0.126-0.252-0.253-0.476-0.417-0.731c-0.159-0.249-0.348-0.576-0.484-0.868   c-0.296-0.606-0.491-1.272-0.569-1.937c-0.173-1.336,0.069-2.619,0.419-3.81c0.375-1.191,0.865-2.32,1.462-3.392   c-0.508,2.367-1.09,4.816-0.618,6.979c0.126,0.532,0.327,1.028,0.587,1.5c0.14,0.249,0.266,0.441,0.449,0.693   c0.18,0.245,0.374,0.537,0.537,0.818c0.658,1.15,1.043,2.458,1.152,3.779c0.084,1.325-0.104,2.646-0.494,3.876   c-0.203,0.614-0.448,1.206-0.728,1.78c-0.284,0.606-0.607,1.083-0.86,1.597C39.068,29.625,38.695,32.109,39.877,34.296z"/>
</g>
<g>
	<path fill="#000000" d="M60.186,34.296c1.182-2.187,0.81-4.671-0.213-6.681c-0.252-0.513-0.576-0.99-0.86-1.597   c-0.279-0.573-0.524-1.166-0.727-1.779c-0.391-1.231-0.578-2.552-0.495-3.876c0.109-1.321,0.494-2.629,1.152-3.779   c0.163-0.282,0.356-0.573,0.536-0.818c0.184-0.253,0.31-0.445,0.45-0.694c0.259-0.472,0.46-0.969,0.587-1.5   c0.472-2.164-0.11-4.613-0.618-6.979c0.598,1.072,1.087,2.201,1.462,3.392c0.351,1.191,0.593,2.474,0.419,3.81   c-0.078,0.665-0.272,1.331-0.568,1.937c-0.138,0.292-0.326,0.619-0.485,0.868c-0.162,0.255-0.289,0.48-0.416,0.731   c-0.51,0.979-0.812,2.056-0.88,3.155c-0.099,1.099,0.051,2.221,0.344,3.316c0.144,0.549,0.329,1.094,0.549,1.627   c0.202,0.505,0.503,1.075,0.724,1.68c0.464,1.197,0.69,2.513,0.562,3.798C61.563,32.178,61.076,33.434,60.186,34.296z"/>
</g>
<g>
	<path fill="#000000" d="M49.618,34.296c1.025-2.816,0.75-5.858-0.445-8.396c-0.659-1.295-1.277-2.762-1.64-4.282   c-0.365-1.531-0.382-3.207-0.023-4.766c0.367-1.548,1.062-2.988,1.71-4.282c0.646-1.296,1.152-2.628,1.462-4.003   c0.619-2.764,0.097-5.714-0.811-8.553c1.524,2.54,2.511,5.625,2.075,8.768c-0.185,1.56-0.719,3.04-1.312,4.439   c-0.637,1.378-1.225,2.646-1.523,4.003c-0.698,2.683,0.128,5.444,1.244,8.187C51.469,28.328,51.282,31.775,49.618,34.296z"/>
</g>
<path fill="#000000" stroke="#010101" stroke-width="2" stroke-miterlimit="10" d="M79.812,50.75c0,0,4.5,0,6.062,0  c3.562,0,3.312,4.125,0,4.125s-6.062,0-6.062,0"/>
<path fill="#000000" stroke="#010101" stroke-width="2" stroke-miterlimit="10" d="M19.892,50.75c0,0-4.5,0-6.062,0  c-3.562,0-3.312,4.125,0,4.125s6.062,0,6.062,0"/>
</svg>