<svg xmlns="http://www.w3.org/2000/svg" xmlns:xlink="http://www.w3.org/1999/xlink" version="1.1" id="Your_Icon" x="0px" y="0px" width="100px" height="100px" viewBox="0 0 100 100" enable-background="new 0 0 100 100" xml:space="preserve">
<g>
	<rect y="8" fill="#000000" width="18" height="12"/>
	<g>
		<rect y="24" fill="#000000" width="18" height="5"/>
		<rect y="33" fill="#000000" width="18" height="61"/>
	</g>
</g>
<g>
	<rect x="23" y="8" fill="#000000" width="21" height="12"/>
	<g>
		<rect x="23" y="24" fill="#000000" width="21" height="5"/>
		<rect x="23" y="33" fill="#000000" width="21" height="61"/>
	</g>
</g>
<g>
	<rect x="48" y="8" fill="#000000" width="20" height="12"/>
	<g>
		<rect x="48" y="24" fill="#000000" width="20" height="5"/>
		<rect x="48" y="33" fill="#000000" width="20" height="61"/>
	</g>
</g>
<g>
	
		<rect x="74.517" y="3.497" transform="matrix(0.1221 0.9925 -0.9925 0.1221 83.8687 -68.3864)" fill="#000000" width="12.149" height="19.438"/>
	<g>
		
			<rect x="80.22" y="16.278" transform="matrix(0.1221 0.9925 -0.9925 0.1221 97.9373 -58.7256)" fill="#000000" width="3.888" height="19.439"/>
		
			<rect x="56.154" y="51.728" transform="matrix(-0.1221 -0.9925 0.9925 -0.1221 36.1034 154.8296)" fill="#000000" width="60.745" height="19.439"/>
	</g>
</g>
<rect x="27" y="43" fill="#000000" width="13" height="28"/>
</svg>