<svg xmlns="http://www.w3.org/2000/svg" xmlns:xlink="http://www.w3.org/1999/xlink" version="1.1" x="0px" y="0px" width="100px" height="100px" viewBox="0 0 100 100" enable-background="new 0 0 100 100" xml:space="preserve">
<g id="Captions">
</g>
<g id="Your_Icon">
	<path d="M78.405,67.859c2.363,0,4.288,1.924,4.288,4.287c0,2.365-1.925,4.289-4.288,4.289c-2.364,0-4.289-1.924-4.289-4.289   C74.116,69.783,76.041,67.859,78.405,67.859 M78.405,64.299c-4.336,0-7.849,3.514-7.849,7.848s3.513,7.848,7.849,7.848   c4.334,0,7.848-3.514,7.848-7.848S82.739,64.299,78.405,64.299L78.405,64.299z"/>
	<path d="M15.833,67.859c2.363,0,4.287,1.924,4.287,4.287c0,2.365-1.924,4.289-4.287,4.289c-2.365,0-4.29-1.924-4.29-4.289   C11.543,69.783,13.468,67.859,15.833,67.859 M15.833,64.299c-4.337,0-7.85,3.514-7.85,7.848s3.513,7.848,7.85,7.848   c4.334,0,7.846-3.514,7.846-7.848S20.167,64.299,15.833,64.299L15.833,64.299z"/>
	<path d="M97.885,61.138V46.634L82.693,31.709h-9.944c-0.63,0-1.14-0.476-1.14-1.102V30.45c0-0.624-0.508-1.133-1.132-1.133h-4.584   c-0.629,0-1.137,0.509-1.137,1.133v1.259v29.52H80.32c4.24,0,7.779,2.982,8.646,6.963h8.919c1.201-0.26,2.103-1.328,2.103-2.605   v-1.842C99.987,62.464,99.086,61.396,97.885,61.138z"/>
	<path d="M0.013,20.005v48.186h6.681c1.53-3.531,5.044-6.003,9.14-6.003c4.094,0,7.606,2.472,9.136,6.003H62.44V20.005H0.013z    M42.927,45.848c0,0.904-0.733,1.636-1.637,1.636h-5.91v5.911c0,0.904-0.733,1.639-1.637,1.639h-6.031   c-0.903,0-1.637-0.734-1.637-1.639v-5.911h-5.91c-0.904,0-1.637-0.732-1.637-1.636v-6.03c0-0.904,0.733-1.636,1.637-1.636h5.91   V32.27c0-0.905,0.733-1.638,1.637-1.638h6.031c0.903,0,1.637,0.733,1.637,1.638v5.912h5.91c0.904,0,1.637,0.732,1.637,1.636V45.848   z"/>
</g>
</svg>