<svg xmlns="http://www.w3.org/2000/svg" xmlns:xlink="http://www.w3.org/1999/xlink" version="1.1" x="0px" y="0px" width="100px" height="100px" viewBox="0 0 100 100" enable-background="new 0 0 100 100" xml:space="preserve">
<g id="Captions">
	<rect x="-606" y="-138" width="185" height="99"/>
	<rect x="-414" y="-174" width="100" height="30"/>
	<text transform="matrix(1 0 0 1 -348 -157.5)" fill="#000000" font-family="'Helvetica'" font-size="2.4">http://thenounproject.com</text>
	<text transform="matrix(1 0 0 1 -406.834 -162.5)"><tspan x="0" y="0" fill="#000000" font-family="'Helvetica-Bold'" font-size="6.1578">The Noun Project</tspan><tspan x="1.12" y="4.8" fill="#000000" font-family="'Helvetica-Bold'" font-size="4">Icon Template</tspan></text>
	<text transform="matrix(1 0 0 1 -592.5 -127.5)" fill="#000000" font-family="'Helvetica-Bold'" font-size="6.1578">Reminders</text>
	<line fill="#000000" stroke="#FFFFFF" stroke-miterlimit="10" x1="-406" y1="-152.5" x2="-396" y2="-152.5"/>
	<line fill="#000000" stroke="#FFFFFF" stroke-miterlimit="10" x1="-593" y1="-121.5" x2="-576" y2="-121.5"/>
	<g>
		<g>
			<g>
				<rect x="-584.802" y="-106.682" fill="#000000" width="8.721" height="8.642"/>
				<path fill="#000000" d="M-578.455-95.688h4.747v-4.703h-4.747V-95.688z M-573.266-95.251h-5.63v-5.579h5.63V-95.251      L-573.266-95.251z M-580.221-93.938h8.279v-8.203h-8.279V-93.938L-580.221-93.938z M-571.5-93.5h-9.163v-9.079h9.163V-93.5      L-571.5-93.5z"/>
				<polygon fill="#000000" points="-580.149,-93.867 -580.292,-94.009 -572.013,-102.213 -571.871,-102.071     "/>
			</g>
		</g>
	</g>
	<rect x="-593" y="-80" fill="none" width="35" height="32.5"/>
	<text transform="matrix(1 0 0 1 -593 -77.8428)"><tspan x="0" y="0" fill="#000000" font-family="'Helvetica-Bold'" font-size="3">Strokes</tspan><tspan x="0" y="5" fill="#000000" font-family="'Helvetica'" font-size="2.4">Try to keep strokes at 4px</tspan><tspan x="0" y="10" fill="#000000" font-family="'Helvetica'" font-size="2.4">Minimum stroke weight is 2px</tspan><tspan x="0" y="14.5" fill="#000000" font-family="'Helvetica'" font-size="2.4">For thicker strokes use even </tspan><tspan x="0" y="17.5" fill="#000000" font-family="'Helvetica'" font-size="2.4">numbers: 6px, 8px etc.</tspan><tspan x="0" y="22" fill="#000000" font-family="'Helvetica-Bold'" font-size="2.4">Remember to expand strokes </tspan><tspan x="0" y="25" fill="#000000" font-family="'Helvetica-Bold'" font-size="2.4">before saving as an SVG </tspan></text>
	<rect x="-550.5" y="-80" fill="none" width="35" height="32.5"/>
	<text transform="matrix(1 0 0 1 -550.5 -77.8428)"><tspan x="0" y="0" fill="#000000" font-family="'Helvetica-Bold'" font-size="3">Size</tspan><tspan x="0" y="5" fill="#000000" font-family="'Helvetica'" font-size="2.4">Cannot be wider or taller than </tspan><tspan x="0" y="8.5" fill="#000000" font-family="'Helvetica'" font-size="2.4">100px (artboard size)</tspan><tspan x="0" y="13.5" fill="#000000" font-family="'Helvetica'" font-size="2.4">Scale your icon to fill as much of </tspan><tspan x="0" y="16.5" fill="#000000" font-family="'Helvetica'" font-size="2.4">the artboard as possible</tspan></text>
	<rect x="-508" y="-80" fill="none" width="35" height="32.5"/>
	<text transform="matrix(1 0 0 1 -508 -77.8428)"><tspan x="0" y="0" fill="#000000" font-family="'Helvetica-Bold'" font-size="3">Ungroup</tspan><tspan x="0" y="5" fill="#000000" font-family="'Helvetica'" font-size="2.4">If your design has more than one </tspan><tspan x="0" y="8" fill="#000000" font-family="'Helvetica'" font-size="2.4">shape, make sure to ungroup</tspan></text>
	<rect x="-464" y="-80" fill="none" width="35" height="32.5"/>
	<text transform="matrix(1 0 0 1 -464 -77.8428)"><tspan x="0" y="0" fill="#000000" font-family="'Helvetica-Bold'" font-size="3">Save as</tspan><tspan x="0" y="5" fill="#000000" font-family="'Helvetica'" font-size="2.4">Save as .SVG and make sure </tspan><tspan x="0" y="8" fill="#000000" font-family="'Helvetica'" font-size="2.4">&#8220;Use Artboards&#8221; is checked</tspan></text>
	<text transform="matrix(1.0074 0 0 1 -539.542 -107.4067)" fill="#000000" font-family="'Helvetica'" font-size="2.5731">100px</text>
	<text transform="matrix(1.0074 0 0 1 -455 -99)" fill="#000000" font-family="'Helvetica-Bold'" font-size="5.1462">.SVG</text>
	<rect x="-540.514" y="-103.185" fill="#000000" width="10.261" height="10.185"/>
	<rect x="-540.477" y="-106.234" fill="#000000" width="0.522" height="2.337"/>
	<rect x="-530.812" y="-106.234" fill="#000000" width="0.523" height="2.337"/>
	<rect x="-541" y="-105.663" fill="#000000" width="11.233" height="0.572"/>
	<g>
		<rect x="-497.805" y="-104.156" fill="#000000" width="10.305" height="10.156"/>
		<rect x="-490.809" y="-109.293" fill="#000000" width="3.308" height="3.261"/>
	</g>
	<rect x="-592.5" y="-115.5" fill="#000000" stroke="#FFFFFF" stroke-miterlimit="10" width="30" height="30"/>
	<rect x="-550.5" y="-115.5" fill="#000000" stroke="#FFFFFF" stroke-miterlimit="10" width="30" height="30"/>
	<rect x="-507.5" y="-115.5" fill="#000000" stroke="#FFFFFF" stroke-miterlimit="10" width="30" height="30"/>
	<rect x="-463.5" y="-115.5" fill="#000000" stroke="#FFFFFF" stroke-miterlimit="10" width="30" height="30"/>
</g>
<g id="Your_Icon">
	<g>
		<path d="M-352.235,18.932c-7.937,0.391-10.328,7.407-10.275,14.361c0.033,4.454,1.437,7.103,3.406,10.993    c3.362,6.641,6.725,13.28,10.087,19.92c0.396,0.78,0.791,1.562,1.186,2.342c0.368,0.725-0.249-0.917,0.088,0.328    c0.789,2.909-0.413,5.153-3.282,6.138c-2.672,0.917-6.11,0.537-8.922,0.537c-3.786,0-7.572,0-11.358,0    c-2.909,0-6.984,0.325-8.714-2.472c-0.456-0.736-0.42-1.85-0.281-2.666c0.113-0.663,0.591-1.726,0.169-0.841    c2.674-5.613,5.348-11.228,8.022-16.842c1.791-3.76,5.305-8.561,5.882-12.759c1.088-7.928-0.24-18.552-10.155-19.04    c-3.385-0.167-3.369,5.084,0,5.25c4.42,0.218,5.101,4.724,5.247,8.335c0.053,1.319-0.033,2.646-0.155,3.959    c-0.115,1.232,0.47-0.616-0.073,0.522c-2.883,6.055-5.767,12.108-8.65,18.162c-1.745,3.664-4.25,7.515-5.268,11.48    c-1.648,6.425,2.796,10.904,8.885,11.901c6.252,1.024,13.096,0.259,19.402,0.259c6.006,0,13.175-1.184,14.54-8.123    c0.731-3.716-0.714-6.525-2.317-9.693c-3.383-6.68-6.766-13.36-10.148-20.04c-0.665-1.313-1.33-2.627-1.995-3.939    c-0.486-0.961,0.007,0.567-0.176-1.046c-0.463-4.103-0.729-11.502,4.857-11.777C-348.866,24.016-348.85,18.765-352.235,18.932    L-352.235,18.932z"/>
	</g>
	<g>
		<path d="M-218.4-101.272c-4.85,0-9.699,0-14.549,0c-3.572,0-6.97,0.09-10.159,1.986c-6.396,3.801-2.308,12.815-0.518,18.048    c2.086,6.101,4.849,11.901,7.187,17.893c2.137,5.476,10.312,5.968,14.95,4.027c4.445-1.858,5.771-7.811,7.412-11.897    c2.651-6.605,7.088-15.621,6.172-22.913C-208.534-99.129-213.944-101.221-218.4-101.272c-3.387-0.04-3.383,5.211,0,5.25    c1.115,0.013,2.161,0.256,3.225,0.582c3.276,1.002,1.87,4.753,1.305,7.157c-1.342,5.711-3.497,11.259-5.679,16.694    c-1.082,2.697-2.019,6.913-5.052,7.822c-4.818,1.443-6.932-1.385-8.563-5.135c-2.317-5.328-4.433-10.752-6.252-16.271    c-0.725-2.199-2.724-6.527-1.732-8.793c0.703-1.606,3.44-1.95,4.968-2.046c5.882-0.37,11.887-0.01,17.781-0.01    C-215.015-96.022-215.015-101.272-218.4-101.272z"/>
	</g>
	<g>
		<path d="M-221.436-116.875c-0.451,8.378-12.55,8.378-13.001,0C-234.889-125.26-221.885-125.216-221.436-116.875    c0.182,3.367,5.433,3.385,5.25,0c-0.357-6.644-5.106-11.392-11.75-11.75c-6.63-0.357-11.422,5.643-11.751,11.75    c-0.357,6.629,5.646,11.419,11.751,11.748c6.628,0.357,11.421-5.643,11.75-11.748    C-216.003-120.26-221.254-120.242-221.436-116.875z"/>
	</g>
	<g>
		<path d="M-225.853-60.022c0,2.873,0,5.746,0,8.619c0,3.386,5.25,3.386,5.25,0c0-2.873,0-5.746,0-8.619    C-220.603-63.408-225.853-63.408-225.853-60.022L-225.853-60.022z"/>
	</g>
	<g>
		<path d="M-233.658-60.022c0,2.873,0,5.746,0,8.619c0,3.386,5.25,3.386,5.25,0c0-2.873,0-5.746,0-8.619    C-228.408-63.408-233.658-63.408-233.658-60.022L-233.658-60.022z"/>
	</g>
	<g>
		<path d="M-358.801-116.875c-0.451,8.377-12.551,8.378-13.002,0C-372.254-125.261-359.25-125.215-358.801-116.875    c0.182,3.367,5.433,3.385,5.25,0c-0.358-6.644-5.108-11.392-11.752-11.75c-6.629-0.357-11.421,5.644-11.75,11.75    c-0.357,6.628,5.645,11.419,11.75,11.748c6.628,0.357,11.423-5.643,11.752-11.748    C-353.368-120.26-358.619-120.242-358.801-116.875z"/>
	</g>
	<g>
		<path d="M-373.168-58.274c4.849,0,9.698,0,14.547,0c3.573,0,6.97-0.091,10.16-1.986c6.396-3.801,2.31-12.814,0.52-18.049    c-2.087-6.101-4.851-11.901-7.188-17.892c-2.137-5.476-10.312-5.967-14.95-4.028c-4.445,1.858-5.771,7.811-7.412,11.897    c-2.651,6.607-7.084,15.621-6.17,22.915C-383.035-60.418-377.623-58.326-373.168-58.274c3.387,0.04,3.383-5.21,0-5.25    c-1.115-0.013-2.161-0.256-3.225-0.582c-3.275-1.002-1.868-4.754-1.304-7.157c1.342-5.712,3.497-11.261,5.678-16.695    c1.083-2.697,2.018-6.913,5.052-7.821c4.818-1.444,6.931,1.384,8.562,5.134c2.318,5.329,4.434,10.752,6.254,16.272    c0.725,2.199,2.724,6.526,1.731,8.794c-0.704,1.606-3.442,1.95-4.97,2.046c-5.881,0.37-11.885,0.01-17.779,0.01    C-376.554-63.524-376.554-58.274-373.168-58.274z"/>
	</g>
	<g>
		<path d="M-363.218-60.022c0,2.873,0,5.746,0,8.619c0,3.386,5.25,3.386,5.25,0c0-2.873,0-5.746,0-8.619    C-357.968-63.408-363.218-63.408-363.218-60.022L-363.218-60.022z"/>
	</g>
	<g>
		<path d="M-371.023-60.022c0,2.873,0,5.746,0,8.619c0,3.386,5.25,3.386,5.25,0c0-2.873,0-5.746,0-8.619    C-365.773-63.408-371.023-63.408-371.023-60.022L-371.023-60.022z"/>
	</g>
	<path d="M-63.023,37.952c-3.688-4.948-7.376-9.896-11.063-14.843c-0.843-1.13-1.957-3.449-3.417-3.852   c-1.89-0.52-4.348-0.258-6.269-0.258c-5.683,0-11.364,0-17.047,0C-114.81,20-112,36.077-112,45.587c0,7.033,0,14.067,0,21.102   c0,5.978,1.705,11.313,8.125,12.691c4.209,0.903,9.014,0.239,13.253,0.239c5.392,0,10.761,0.192,16.149-0.009   c6.475-0.241,12.117-4.488,12.119-11.342c0.002-6.236-0.011-12.474-0.009-18.71C-62.361,46.659-61.126,40.497-63.023,37.952z    M-69.564,37.404C-71.71,37.11-74,36.817-76,36.523c0-2.584,0-5.168,0-7.752C-74,31.648-71.71,34.526-69.564,37.404z    M-67.634,68.084C-67.636,74.469-74.373,74-78.879,74c-6.955,0-13.909,0-20.863,0c-4.978,0-7.258-1.438-7.258-6.896   c0-6.848,0-13.694,0-20.542c0-5.424-0.746-11.047,0.018-16.443c0.439-3.121,3.089-5.119,6.163-5.119c6.534,0,13.069,0,19.604,0   C-81.466,25-82,25.427-82,26c0,4.264,0,8.527,0,12.791c0,1.05,0.979,2.376,2.114,2.531c3.433,0.47,6.959,0.939,10.392,1.409   c0.682,0.094,1.324-0.056,1.821-0.342c0,2.39,0.022,4.688,0.021,7.077C-67.653,55.703-67.632,61.848-67.634,68.084z"/>
	<path d="M-203.382,58.986c0.002-6.238,0.005-12.478,0.007-18.717c0.002-4.259-0.266-8.761-1.281-12.903   c-1.221-4.979-7.415-5.663-11.659-5.897c-7.411-0.409-14.929-0.023-22.351-0.023c-13.973,0.275-10.875,18.523-10.875,27.74   c0,8.857-3.447,28.521,10.771,27.709c5.849-0.334,11.808-0.006,17.665-0.006c4.678,0,9.256,0.422,13.421-2.165   C-202.326,71.396-203.384,64.357-203.382,58.986z M-211.057,70.64c-3.754,2.332-10.763,0.999-14.778,0.999   c-4.718,0-9.893,0.726-14.571-0.079c-5.427-0.935-3.594-10.771-3.594-14.74c0-7.204,0-14.408,0-21.611   c0-3.918,0.454-8.208,5.334-8.208c6.202,0,12.404,0,18.606,0c1.842,0,3.668-0.159,5.507-0.005c2.042,0.171,4.479,0.393,5.024,2.621   c0.588,2.396,0.636,4.94,0.775,7.395c0.29,5.099,0.125,10.21,0.123,15.313C-208.631,56.693-206.61,67.878-211.057,70.64z"/>
	<g>
		<path d="M-235.812,39.494c5.882,0,11.764,0,17.646,0c3.386,0,3.386-5.25,0-5.25c-5.882,0-11.764,0-17.646,0    C-239.197,34.244-239.197,39.494-235.812,39.494L-235.812,39.494z"/>
	</g>
	<g>
		<path d="M-218.461,55.51c0.197,0,0.396,0,0.593,0c1.431,0,2.625-1.194,2.625-2.625s-1.194-2.625-2.625-2.625    c-0.197,0-0.396,0-0.593,0c-1.431,0-2.625,1.194-2.625,2.625S-219.892,55.51-218.461,55.51L-218.461,55.51z"/>
	</g>
	<g>
		<path d="M-226.767,55.51c0.197,0,0.396,0,0.593,0c1.431,0,2.625-1.194,2.625-2.625s-1.194-2.625-2.625-2.625    c-0.197,0-0.396,0-0.593,0c-1.431,0-2.625,1.194-2.625,2.625S-228.197,55.51-226.767,55.51L-226.767,55.51z"/>
	</g>
	<g>
		<path d="M-235,55.51c0.197,0,0.396,0,0.593,0c1.431,0,2.625-1.194,2.625-2.625s-1.194-2.625-2.625-2.625c-0.197,0-0.396,0-0.593,0    c-1.431,0-2.625,1.194-2.625,2.625S-236.431,55.51-235,55.51L-235,55.51z"/>
	</g>
	<g>
		<path d="M-218.461,65c0.197,0,0.396,0,0.593,0c1.431,0,2.625-1.194,2.625-2.625s-1.194-2.625-2.625-2.625    c-0.197,0-0.396,0-0.593,0c-1.431,0-2.625,1.194-2.625,2.625S-219.892,65-218.461,65L-218.461,65z"/>
	</g>
	<g>
		<path d="M-226.767,65c0.197,0,0.396,0,0.593,0c1.431,0,2.625-1.194,2.625-2.625s-1.194-2.625-2.625-2.625    c-0.197,0-0.396,0-0.593,0c-1.431,0-2.625,1.194-2.625,2.625S-228.197,65-226.767,65L-226.767,65z"/>
	</g>
	<g>
		<path d="M-235,65c0.197,0,0.396,0,0.593,0c1.431,0,2.625-1.194,2.625-2.625s-1.194-2.625-2.625-2.625c-0.197,0-0.396,0-0.593,0    c-1.431,0-2.625,1.194-2.625,2.625S-236.431,65-235,65L-235,65z"/>
	</g>
	<g>
		<path d="M202.677,169.214c-11.166,11.167-22.332,22.334-33.498,33.5c-2.396,2.396,1.316,6.108,3.713,3.713    c11.166-11.167,22.332-22.334,33.498-33.5C208.785,170.53,205.073,166.818,202.677,169.214L202.677,169.214z"/>
	</g>
	<g>
		<path d="M178.161,176.369c-2.771,2.552-6.682-1.353-4.125-4.122C176.594,169.475,180.704,173.61,178.161,176.369    c-2.29,2.484,1.413,6.207,3.713,3.713c3.099-3.362,3.097-8.187-0.002-11.548c-3.098-3.359-8.393-2.916-11.549,0    c-3.355,3.101-2.915,8.388,0,11.548c3.101,3.359,8.389,2.911,11.551,0C184.369,177.784,180.646,174.081,178.161,176.369z"/>
	</g>
	<g>
		<path d="M202.146,202.727c-2.769,2.555-6.679-1.354-4.123-4.123C200.579,195.832,204.692,199.968,202.146,202.727    c-2.292,2.483,1.412,6.205,3.713,3.713c3.102-3.361,3.101-8.188-0.002-11.549c-3.1-3.355-8.388-2.914-11.547,0    c-3.356,3.098-2.915,8.391,0,11.548c3.101,3.357,8.388,2.915,11.549,0.001C208.352,204.14,204.63,200.436,202.146,202.727z"/>
	</g>
	<path d="M40.371,26.752c-0.744-3.034-1.37-6.067-2.114-9.102c-0.63-2.565-4.313-2.451-5.004,0   c-1.529,5.43-3.026,10.857-4.556,16.286c-0.029,0.111,0.153,0.229,0.138,0.35C28.802,34.48,29,34.668,29,34.847   c0,14.742,0,29.484,0,44.227c0,0.919,0.312,1.808,1.111,2.267c1.468,0.841,2.842,1.682,4.309,2.522   c0.816,0.469,1.549,0.477,2.366,0C38.541,82.839,42,81.603,42,79.119c0-1.662,0-3.323,0-4.985c0-8.189,0-16.378,0-24.567   c0-4.965,0-9.931,0-14.896C42,32.121,40.971,29.196,40.371,26.752z M36.162,30.661c-0.353,0.001-0.705,0.002-1.058,0.003   c0.188-0.67,0.377-1.34,0.565-2.01C35.834,29.323,35.998,29.992,36.162,30.661z M34,77.552c0-13.878,0-27.756,0-41.634   c1-0.004,2-0.007,3-0.01c0,0.318,0,0.637,0,0.955c0,2.726,0,5.451,0,8.177c0,10.866,0,21.733,0,32.6   c0,0.308-0.881,0.615-1.41,0.924C35.002,78.226,34,77.889,34,77.552z"/>
	<path d="M66,15c-5.257,0-10.515,0-15.771,0c-0.772,0-1.36,0.469-1.78,0.891c-0.025,0.021-0.048,0.14-0.073,0.162   c-0.022,0.025,0.151,0.095,0.13,0.12C48.083,16.593,48,17.228,48,18c0,21.025,0,42.05,0,63.075C48,82.506,48.798,84,50.229,84   c5.257,0,10.515,0,15.771,0c1.431,0,3-1.494,3-2.925C69,60.05,69,39.025,69,18C69,16.569,67.431,15,66,15z M53,21c3,0,7,0,10,0   c0,2,0,4,0,7c-1,0-3,0-4,0c-4,0-4,5,0,5c1,0,3,0,4,0c0,3,0,5,0,8c-1,0-3,0-4,0c-4,0-4,5,0,5c1,0,3,0,4,0c0,3,0,5,0,8c-1,0-3,0-4,0   c-4,0-4,5,0,5c1,0,3,0,4,0c0,3,0,5,0,8c-1,0-3,0-4,0c-4,0-4,5,0,5c1,0,3,0,4,0c0,2,0,4,0,6c-3,0-7,0-10,0C53,59,53,40,53,21z"/>
	<g>
		<path d="M-381.06,190.078c-0.011-3.844,1.227-7.717,3.357-10.889c3.239-4.822,9.751-5.448,15.049-4.64    c7.906,1.207,12.812,6.373,13.028,14.492c0.145,5.429-0.014,10.881-0.021,16.312c-0.013,10.412-8.535,15.905-18.687,14.36    c-7.052-1.072-12.726-5.909-12.726-13.476C-381.06,200.852-381.06,195.465-381.06,190.078c0-3.386-5.25-3.386-5.25,0    c0,5.486,0,10.974,0,16.46c0,8.204,5.306,14.488,12.707,17.255c11.6,4.335,26.459-0.889,28.868-13.863    c0.727-3.912,0.343-8.146,0.348-12.082c0.01-6.988,0.78-14.379-3.327-20.475c-6.635-9.848-24.109-11.207-32.501-3.281    c-4.115,3.886-6.109,10.424-6.094,15.986C-386.3,193.463-381.05,193.464-381.06,190.078z"/>
	</g>
	<g>
		<path d="M-384.382,192.609c11.921,4.358,26.293,2.572,38.081-1.036c3.228-0.988,1.85-6.056-1.396-5.062    c-10.963,3.356-24.186,5.095-35.289,1.036C-386.174,186.382-387.535,191.457-384.382,192.609L-384.382,192.609z"/>
	</g>
	<g>
		<path d="M-368.701,171.69c0.245,6.892,0.49,13.784,0.734,20.676c0.12,3.375,5.37,3.387,5.25,0    c-0.245-6.892-0.49-13.784-0.734-20.676C-363.571,168.315-368.821,168.304-368.701,171.69L-368.701,171.69z"/>
	</g>
	<g>
		<path d="M-368.196,169.747c-0.056-3.809-1.59-7.592-4.376-10.195c-2.5-2.337-11.962-3.574-7.366-8.695    c2.254-2.512-1.446-6.237-3.712-3.713c-3.14,3.499-3.484,8.522-0.436,12.144c2.424,2.879,6.846,2.273,9.063,5.342    c1.023,1.416,1.551,3.375,1.576,5.118C-373.397,173.13-368.147,173.135-368.196,169.747L-368.196,169.747z"/>
	</g>
	<g>
		<path d="M-190.302,207.695c0-11.578,0-23.156,0-34.733c0-3.246-3.158-4.798-5.595-6.49c-4.459-3.099-10.029-4.465-15.398-3.978    c-5.688,0.516-11.628,3.546-15.53,7.733c-0.58,0.623-1.034,1.7-0.675,2.555c0.003,0.006,0.005,0.012,0.008,0.019    c1.463-0.852,2.925-1.703,4.388-2.555c-7.72-6.732-17.143-10.08-26.974-5.958c-3.043,1.275-9.547,4.326-9.547,8.353    c0,11.678,0,23.355,0,35.033c0,2.23,2.897,3.556,4.481,1.856c8.098-8.69,19.841-7.38,28.326,0.021    c1.812,1.58,5.357,0.111,4.388-2.555c-0.003-0.007-0.005-0.014-0.008-0.021c-0.225,0.852-0.45,1.703-0.675,2.555    c8.098-8.691,19.844-7.38,28.329,0.021c2.54,2.214,6.269-1.483,3.713-3.713c-6.911-6.027-14.98-9.401-24.125-7.005    c-4.258,1.115-8.619,3.753-11.63,6.983c-0.604,0.649-0.996,1.671-0.675,2.555c0.003,0.007,0.005,0.014,0.008,0.021    c1.463-0.852,2.925-1.703,4.388-2.555c-6.91-6.027-14.979-9.401-24.122-7.005c-4.259,1.115-8.619,3.753-11.63,6.983    c1.494,0.619,2.987,1.237,4.481,1.856c0-10.132,0-20.264,0-30.395c0-1.626,0-3.252,0-4.878c0-1.257-1.487,2.258-0.472,1.233    c0.709-0.715,1.49-1.359,2.299-1.958c8.487-6.282,18.049-4.417,25.73,2.282c1.757,1.532,5.502,0.093,4.388-2.555    c-0.003-0.006-0.005-0.012-0.008-0.019c-0.225,0.852-0.45,1.703-0.675,2.555c3.314-3.558,8.144-5.863,12.955-6.3    c2.318-0.211,4.564,0.263,6.767,0.93c1.201,0.416,2.35,0.942,3.446,1.58c0.712,0.378,4.393,3.791,4.393,1.988    c0,1.485,0,2.971,0,4.456c0,10.366,0,20.733,0,31.101C-195.552,211.081-190.302,211.081-190.302,207.695z"/>
	</g>
	<g>
		<path d="M-227.594,172.084c0,11.863,0,23.727,0,35.59c0,3.386,5.25,3.386,5.25,0c0-11.863,0-23.727,0-35.59    C-222.344,168.698-227.594,168.698-227.594,172.084L-227.594,172.084z"/>
	</g>
	<g>
		<path d="M-114.981-100.429c0,11.567,0,23.134,0,34.7c0,3.386,5.25,3.386,5.25,0c0-11.566,0-23.133,0-34.7    C-109.731-103.814-114.981-103.814-114.981-100.429L-114.981-100.429z"/>
	</g>
	<g>
		<path d="M-65.748-100.429c0,11.567,0,23.134,0,34.7c0,3.386,5.25,3.386,5.25,0c0-11.566,0-23.133,0-34.7    C-60.498-103.814-65.748-103.814-65.748-100.429L-65.748-100.429z"/>
	</g>
	<g>
		<path d="M-57.152-90.264c-11.994-7.893-23.988-15.785-35.982-23.678c-2.838-1.867-5.465,2.681-2.65,4.533    c11.994,7.893,23.988,15.785,35.982,23.678C-56.965-83.863-54.338-88.412-57.152-90.264L-57.152-90.264z"/>
	</g>
	<g>
		<path d="M-115.675-85.73c11.993-7.893,23.987-15.785,35.981-23.678c2.814-1.852,0.188-6.4-2.65-4.533    c-11.993,7.893-23.987,15.785-35.981,23.678C-121.14-88.412-118.513-83.863-115.675-85.73L-115.675-85.73z"/>
	</g>
	<g>
		<path d="M-215.144,319.235c-3.322-4.013-6.644-8.026-9.965-12.04c-0.619,1.494-1.237,2.987-1.856,4.481c0.038,0,0.077,0,0.115,0    c-0.619-1.494-1.237-2.987-1.856-4.481c-3.32,4.014-6.642,8.027-9.963,12.04c-2.141,2.587,1.552,6.323,3.713,3.713    c3.32-4.014,6.642-8.027,9.963-12.04c1.401-1.694,0.596-4.481-1.856-4.481c-0.038,0-0.077,0-0.115,0    c-2.451,0-3.259,2.787-1.856,4.481c3.322,4.013,6.644,8.026,9.965,12.04C-216.695,325.559-213.003,321.822-215.144,319.235    L-215.144,319.235z"/>
	</g>
	<g>
		<path d="M-229.59,309.755c0,9.082,0,18.163,0,27.245c0,3.386,5.25,3.386,5.25,0c0-9.082,0-18.163,0-27.245    C-224.34,306.369-229.59,306.369-229.59,309.755L-229.59,309.755z"/>
	</g>
	<g>
		<path d="M-377.665,326.814c3.32,4.013,6.641,8.026,9.962,12.04c0.619-1.494,1.237-2.987,1.856-4.481c-0.038,0-0.076,0-0.113,0    c0.619,1.494,1.237,2.987,1.856,4.481c3.32-4.014,6.64-8.027,9.96-12.04c2.14-2.588-1.553-6.323-3.713-3.713    c-3.319,4.014-6.64,8.027-9.959,12.04c-1.402,1.694-0.596,4.481,1.856,4.481c0.038,0,0.076,0,0.113,0    c2.452,0,3.258-2.787,1.856-4.481c-3.32-4.013-6.641-8.026-9.962-12.04C-376.113,320.491-379.805,324.227-377.665,326.814    L-377.665,326.814z"/>
	</g>
	<g>
		<path d="M-363.222,336.295c0-9.081,0-18.162,0-27.243c0-3.386-5.25-3.386-5.25,0c0,9.081,0,18.162,0,27.243    C-368.472,339.681-363.222,339.681-363.222,336.295L-363.222,336.295z"/>
	</g>
	<g>
		<path d="M-103.696,312.96c7.947,7.947,15.894,15.896,23.84,23.844c2.396,2.396,6.108-1.316,3.713-3.713    c-7.947-7.947-15.894-15.896-23.84-23.844C-102.38,306.852-106.092,310.563-103.696,312.96L-103.696,312.96z"/>
	</g>
	<g>
		<path d="M-79.856,309.247c-7.946,7.948-15.893,15.896-23.84,23.844c-2.396,2.396,1.316,6.108,3.713,3.713    c7.946-7.948,15.893-15.896,23.84-23.844C-73.748,310.563-77.46,306.852-79.856,309.247L-79.856,309.247z"/>
	</g>
	<path d="M227-91.884c0-4.608,0.887-9.51-1.511-13.656c-2.066-3.574-6.051-4.46-9.848-4.46c-5.715,0-11.429,0-17.144,0   c-6.452,0-12.904,0-19.356,0c-0.223-2.273-1.358-3.909-3.312-5.135c-1.419-0.89-2.745-0.838-4.352-0.838   c-2.83,0-5.533-0.255-7.584,2.029c-0.962,1.072-1.621,2.546-1.898,3.979c-5.867,0.355-10.492,4.853-10.551,11.103   c-0.078,8.355-0.145,16.892,0.001,25.246C151.692-59.535,168.566-62,177.809-62c8.785,0,17.57,0,26.355,0   c5.691,0,13.797,1.217,18.75-2.123c4.412-2.976,4.086-8.528,4.086-13.208C227-82.182,227-87.033,227-91.884z M170.033-111   c0.971,0,1.94,0,2.911,0c0.052,0,0.126,0.2,0.235,0.26c0.269,0.145,0.545,0.469,0.672,0.74c-2.111,0-4.222,0-6.332,0   C168.071-110.947,168.759-111,170.033-111z M222.147-72.58c-1.086,6.846-11.942,4.58-17.031,4.58c-14.087,0-28.174,0-42.261,0   c-8.652,0-6.24-14.604-6.224-20.5c0.015-5.483-2.061-15.5,6.11-16.5c11.919,0,23.837,0,35.756,0c5.715,0,11.429,0,17.144,0   c6.983,0,6.575,5.94,6.575,11.704C222.217-86.62,223.196-79.193,222.147-72.58z"/>
	<path d="M203.438-85.295c0.016-0.284-0.02-0.535-0.074-0.771c-0.744-7.52-6.276-12.836-13.944-13.25   c-7.912-0.426-13.625,6.733-14.018,14.02c-0.426,7.912,6.73,13.625,14.018,14.018c7.628,0.41,13.197-6.228,13.94-13.234   C203.418-84.751,203.454-85.006,203.438-85.295z M180.652-85.295c-0.609-11.311,16.93-11.25,17.536,0   C197.58-73.993,181.261-73.993,180.652-85.295z"/>
	<g>
		<path d="M22.602,199.119c0.275,13.972,18.523,10.874,27.739,10.874c8.857,0,28.52,3.447,27.71-10.771    c-0.333-5.849-0.006-11.807-0.006-17.664c0-4.678,0.422-9.256-2.165-13.421c-3.327-5.358-10.365-4.301-15.737-4.303    c-6.238-0.002-12.478-0.004-18.717-0.006c-4.259-0.001-8.76,0.264-12.903,1.279c-4.979,1.221-5.662,7.417-5.897,11.66    C22.215,184.179,22.602,191.698,22.602,199.119c0,3.386,5.25,3.386,5.25,0c0-6.202,0-12.404,0-18.606    c0-1.842-0.007-3.668,0.147-5.507c0.172-2.042,0.469-4.479,2.697-5.025c2.396-0.588,4.979-0.636,7.433-0.774    c5.099-0.289,10.229-0.125,15.333-0.123c4.369,0.002,15.572-2.02,18.334,2.428c2.331,3.754,0.999,10.763,0.999,14.778    c0,4.717,0.726,10.037-0.08,14.716c-0.934,5.426-10.771,3.738-14.74,3.738c-7.203,0-14.407,0-21.611,0    c-3.917,0-8.416-0.744-8.512-5.624C27.785,195.738,22.535,195.731,22.602,199.119z"/>
	</g>
	<g>
		<path d="M47.707,166.454c0,13.638,0,27.276,0,40.914c0,3.386,5.25,3.386,5.25,0c0-13.638,0-27.276,0-40.914    C52.957,163.068,47.707,163.068,47.707,166.454L47.707,166.454z"/>
	</g>
	<g>
		<path d="M1.812,190.412c1.828,2.209,3.655,4.418,5.483,6.627c0.412-0.996,0.825-1.991,1.237-2.987c-0.021,0-0.04,0-0.061,0    c0.412,0.996,0.825,1.991,1.237,2.987c1.827-2.209,3.653-4.418,5.48-6.627c1.427-1.725-1.035-4.216-2.475-2.475    c-1.827,2.209-3.653,4.418-5.48,6.627c-0.935,1.13-0.397,2.987,1.237,2.987c0.021,0,0.04,0,0.061,0    c1.635,0,2.172-1.858,1.237-2.987c-1.828-2.209-3.655-4.418-5.483-6.627C2.846,186.197,0.384,188.688,1.812,190.412L1.812,190.412    z"/>
	</g>
	<g>
		<path d="M10.282,195.415c0-4.998,0-9.996,0-14.994c0-2.257-3.5-2.257-3.5,0c0,4.998,0,9.996,0,14.994    C6.782,197.672,10.282,197.672,10.282,195.415L10.282,195.415z"/>
	</g>
	<g>
		<path d="M98.237,185.809c-1.828-2.209-3.656-4.418-5.484-6.627c-0.412,0.996-0.825,1.991-1.237,2.987c0.021,0,0.042,0,0.062,0    c-0.412-0.996-0.825-1.991-1.237-2.987c-1.827,2.209-3.655,4.418-5.482,6.627c-1.427,1.725,1.035,4.216,2.475,2.475    c1.827-2.209,3.655-4.418,5.482-6.627c0.935-1.13,0.397-2.987-1.237-2.987c-0.021,0-0.042,0-0.062,0    c-1.635,0-2.172,1.858-1.237,2.987c1.828,2.209,3.656,4.418,5.484,6.627C97.203,190.023,99.665,187.533,98.237,185.809    L98.237,185.809z"/>
	</g>
	<g>
		<path d="M89.766,180.806c0,4.998,0,9.996,0,14.994c0,2.257,3.5,2.257,3.5,0c0-4.998,0-9.996,0-14.994    C93.266,178.549,89.766,178.549,89.766,180.806L89.766,180.806z"/>
	</g>
	<g>
		<path d="M-60.625,188.058c-0.348,14.606-11.708,25.97-26.315,26.317c-14.605,0.348-25.98-12.236-26.315-26.317    c-0.348-14.605,12.234-25.978,26.315-26.312C-72.336,161.397-60.96,173.976-60.625,188.058c0.08,3.38,5.331,3.388,5.25,0    c-0.416-17.489-14.076-31.146-31.565-31.562c-17.486-0.416-31.164,14.698-31.565,31.562    c-0.416,17.487,14.701,31.166,31.565,31.567c17.488,0.416,31.164-14.703,31.565-31.567    C-55.294,184.67-60.545,184.678-60.625,188.058z"/>
	</g>
	<g>
		<path d="M-64.973,205.351c-8.378-10.022-8.492-24.228-0.208-34.345c2.125-2.597-1.566-6.334-3.713-3.713    c-10.213,12.475-10.138,29.394,0.208,41.771C-66.512,211.664-62.817,207.929-64.973,205.351L-64.973,205.351z"/>
	</g>
	<g>
		<path d="M-89.565,159.12c0,19.293,0,38.587,0,57.88c0,3.386,5.25,3.386,5.25,0c0-19.293,0-38.587,0-57.88    C-84.315,155.734-89.565,155.734-89.565,159.12L-89.565,159.12z"/>
	</g>
	<g>
		<path d="M-104.603,209.063c10.344-12.375,10.414-29.297,0.208-41.771c-2.146-2.622-5.837,1.116-3.713,3.713    c8.277,10.115,8.168,24.325-0.208,34.345C-110.471,207.929-106.776,211.664-104.603,209.063L-104.603,209.063z"/>
	</g>
	<g>
		<path d="M-114.208,189.404c17.639,5.771,38.148,4.609,55.974,0.784c3.31-0.71,1.905-5.771-1.396-5.062    c-16.911,3.629-36.44,4.694-53.181-0.784C-116.039,183.286-117.41,188.356-114.208,189.404L-114.208,189.404z"/>
	</g>
	<g>
		<path d="M214.918,78.11c0-9.106,0-18.212,0-27.318c0-6.284,0-12.569,0-18.854c0-2.226,0.782-6.052-0.105-8.196    c-1.275-3.082-6.357-1.732-5.062,1.396c0.004,0.009,0.008,0.019,0.012,0.028c1.285-0.988,2.57-1.977,3.856-2.965    c-13.854-5.898-28.902-7.723-43.428-3.193c-2.557,0.797-5.196,1.804-7.516,3.165c-1.868,1.097-1.3,4.164-1.3,5.969    c0,16.646,0,33.294,0,49.941c0,1.59,1.699,3.141,3.323,2.531c14.784-5.548,32.17-5.256,46.896,0.027    c2.435,0.873,3.769-1.981,2.965-3.856c-0.004-0.009-0.008-0.018-0.012-0.027c-1.33-3.104-5.852-0.426-4.533,2.65    c0.004,0.009,0.008,0.018,0.012,0.027c0.988-1.286,1.977-2.571,2.965-3.856c-15.505-5.562-34.122-5.869-49.689-0.027    c1.108,0.844,2.216,1.688,3.323,2.531c0-17.881,0-35.763,0-53.644c-0.434,0.756-0.867,1.511-1.3,2.267    c13.532-7.947,31.908-5.819,45.643,0.028c1.794,0.764,4.861-0.537,3.856-2.965c-0.004-0.009-0.008-0.019-0.012-0.028    c-1.275-3.082-6.357-1.732-5.062,1.396c-0.502-1.215-0.082,0.835-0.082,1.581c0,1.981,0,3.964,0,5.945c0,6.043,0,12.086,0,18.128    c0,9.106,0,18.212,0,27.318C209.668,81.496,214.918,81.496,214.918,78.11L214.918,78.11z"/>
	</g>
	<g>
		<path d="M177.55,39.28c6.655-2.792,14.212-2.689,20.85,0c3.14,1.271,4.491-3.809,1.396-5.062c-7.365-2.983-16.243-3.104-23.643,0    C173.08,35.507,174.429,40.59,177.55,39.28L177.55,39.28z"/>
	</g>
	<g>
		<path d="M177.55,50.52c6.655-2.792,14.212-2.688,20.85,0c3.14,1.271,4.491-3.809,1.396-5.062c-7.365-2.983-16.243-3.104-23.643,0    C173.08,46.746,174.429,51.828,177.55,50.52L177.55,50.52z"/>
	</g>
	<g>
		<path d="M177.55,61.926c6.655-2.791,14.212-2.688,20.85,0c3.141,1.271,4.491-3.809,1.396-5.062    c-7.365-2.982-16.243-3.103-23.643,0C173.08,58.152,174.429,63.234,177.55,61.926L177.55,61.926z"/>
	</g>
	<path d="M90.83-82.525c-3.213-4.5-9.194-5.921-12.782-1.951c-3.054-1.435-6.106-2.87-9.159-4.306c2.595-1.22,5.189-2.44,7.784-3.66   c1.129,0.311,2.29,0.528,3.448,0.665c4.182,0.494,7.795-0.207,10.313-3.77c1.642-2.322,1.669-6.313-0.4-8.394   c-1.361-1.369-2.854-2.049-4.723-2.506c-0.158-0.039-0.278-0.047-0.377-0.041c-0.178-0.991-0.251-2.014-0.408-3.008   c-1.34-8.493-14.187-8.271-15.015,0.275c-0.07,0.729-0.058,1.382,0.035,2.021c-6.64,3.121-13.279,6.242-19.919,9.363   c-6.202-2.915-12.404-5.83-18.606-8.746c0.795-7.23-9.565-12.392-13.913-5.361c-0.834,1.349-1.053,3.119-1.249,4.654   c-0.062,0.493-0.127,0.982-0.2,1.471c-0.019-0.279-0.365,0.015-1.544,0.303c-3.376,0.825-5.663,4.322-4.999,7.718   c0.673,3.438,3.024,5.75,6.381,6.602c1.814,0.46,3.875,0.271,5.697-0.035c0.874-0.147,1.729-0.318,2.589-0.529   c0.062-0.015,0.111-0.027,0.166-0.041c2.14,1.006,4.279,2.012,6.418,3.019c-2.6,1.222-5.198,2.444-7.798,3.666   c-3.587-3.971-9.569-2.548-12.78,1.951c-0.293,0.41-0.428,0.814-0.462,1.202c-1.017,3.379,1.197,6.207,3.457,8.645   c0.968,1.044-1.104,2.918-0.959,4.753c0.177,2.227,0.807,3.857,2.53,5.335c2.821,2.416,6.961,2.09,9.817,0.033   c1.539-1.107,2.653-2.693,3.681-4.259c0.482-0.735,0.872-1.535,1.26-2.322c0.076-0.154,0.146-0.282,0.211-0.399   c6.768-3.183,13.535-6.365,20.304-9.547c7.245,3.406,14.491,6.813,21.735,10.221c0.572,1.24,1.229,2.426,1.981,3.572   c2.389,3.641,5.575,5.418,9.89,4.816c3.398-0.475,6.061-4.184,5.464-7.508c-0.48-2.674-1.96-2.875-0.202-4.77   c1.427-1.539,2.609-3.242,3.027-5.32c0.186-0.92,0.05-1.779-0.232-2.629C91.253-81.723,91.118-82.121,90.83-82.525z M77.156-92.668   C77.962-93.036,77.727-92.81,77.156-92.668L77.156-92.668z M25.557-96.823c-1.407-0.662-2.5-0.163-3.905,0.182   c-1.456,0.356-2.897,0.448-4.389,0.417c-2.018-0.042-4.652-3.009-1.752-4.229c2.472-1.041,4.096-0.21,5.082-3.178   c0.394-1.181,0.366-2.604,0.56-3.829c0.663-4.194,5.758-2.021,4.256,1.621c-0.413,1.003,0.245,2.513,1.206,2.964   c5.622,2.643,11.244,5.286,16.866,7.929c-2.322,1.092-4.645,2.183-6.967,3.275C32.861-93.388,29.209-95.106,25.557-96.823z    M27.615-75.153c-2.93,1.378-3.081,3.198-4.875,5.932c-0.792,1.207-6.385,4.838-5.538,0.128c0.271-1.506,2.286-2.794,1.617-4.579   c-0.824-2.2-4.767-4.615-4.354-7.026c1.61-2.095,3.707-2.172,4.926,0.227c0.689,1.355,2.358,1.521,3.592,0.941   c17.007-7.995,34.014-15.989,51.021-23.984c0.961-0.452,1.619-1.961,1.206-2.964c-1.234-2.995,3.007-6.088,4.072-2.483   c0.386,1.304,0.436,2.739,0.622,4.083c0.258,1.855,1.401,3.236,3.303,3.438c2.104,0.224,3.852,1.026,2.695,3.244   c-1.03,1.975-4.311,1.394-6.061,1.099c-1.626-0.274-3.108-1.151-4.715-0.396c-6.993,3.289-13.987,6.577-20.981,9.866   C45.302-83.47,36.459-79.312,27.615-75.153z M29.417-70.34C29.913-71.161,30.018-70.836,29.417-70.34L29.417-70.34z M81.883-71.291   c0.394,1.004,0.904,1.949,1.532,2.838c1.58,3.762-3.926,1.645-4.574,1.037c-2.66-2.492-2.315-5.441-5.504-6.939   c-5.854-2.754-11.709-5.507-17.563-8.26c2.084-0.979,4.168-1.96,6.252-2.939c0.239-0.112,0.478-0.225,0.717-0.337   c4.964,2.334,9.928,4.667,14.892,7.001c1.233,0.58,2.901,0.414,3.592-0.941c1.222-2.402,3.325-2.322,4.937-0.217   c0.464,2.453-3.391,4.418-4.201,6.582C81.675-72.705,81.688-72.076,81.883-71.291z"/>
	<g>
		<path d="M525.581-98.375c9.249-1.248,10.879,5.441,10.879,5.441s5.117-18.836,19.823-17.5    c24.398,2.218,16.697,20.997,16.697,20.997s5.216,0.118,6.017,5.262c0.337,2.195-0.169,7.972-7.182,7.97h-47.012    C514.146-76.207,511.752-96.508,525.581-98.375z"/>
		<g>
			<path d="M525.581-95.375c2.818-0.262,7.063-0.162,7.986,3.239c0.781,2.88,4.989,2.851,5.785,0     c0.853-3.055,2.35-5.904,4.095-8.535c4.533-6.834,11.285-7.682,18.783-5.643c7.554,2.054,10.689,9.006,7.857,16.078     c-0.768,1.916,1.135,3.702,2.893,3.798c5.137,0.278,3.277,6.964-1.165,7.231c-1.575,0.095-3.186,0-4.763,0     c-8.376,0-16.751,0-25.127,0c-5.671,0-11.342,0-17.013,0c-3.707,0-5.554-3.713-5.88-6.954c-0.504-5.013,2.554-8.479,7.346-9.321     c3.806-0.67,2.188-6.451-1.596-5.786c-11.755,2.068-16.205,18.153-6.6,25.746c2.747,2.172,5.844,2.315,9.155,2.315     c5.184,0,10.368,0,15.552,0c9.605,0,19.21,0,28.815,0c12.562,0,13.963-18.544,1.274-19.231c0.964,1.266,1.929,2.531,2.893,3.798     c3.985-9.952-1.296-19.478-10.935-23.102c-14.849-5.582-27.379,3.711-31.371,18.01c1.929,0,3.856,0,5.785,0     c-1.648-6.079-8.122-8.169-13.771-7.643C521.763-101.02,521.728-95.017,525.581-95.375z"/>
		</g>
	</g>
	<g>
		<path d="M203.453,325.471c-0.322,8.384-6.553,14.615-14.937,14.938c-8.378,0.322-14.635-7.042-14.938-14.938    c-0.322-8.376,7.044-14.633,14.938-14.937C196.893,310.212,203.149,317.576,203.453,325.471c0.13,3.374,5.381,3.387,5.25,0    c-0.436-11.298-8.889-19.752-20.187-20.187c-11.288-0.435-19.778,9.541-20.188,20.187c-0.435,11.29,9.542,19.778,20.188,20.188    c11.29,0.435,19.776-9.542,20.187-20.188C208.834,322.084,203.583,322.097,203.453,325.471z"/>
	</g>
	<g>
		<path d="M191.142,297.872c0-2.624,0-5.248,0-7.872c0-3.386-5.25-3.386-5.25,0c0,2.624,0,5.248,0,7.872    C185.892,301.258,191.142,301.258,191.142,297.872L191.142,297.872z"/>
	</g>
	<g>
		<path d="M191.142,360.966c0-2.624,0-5.247,0-7.871c0-3.386-5.25-3.386-5.25,0c0,2.624,0,5.247,0,7.871    C185.892,364.352,191.142,364.352,191.142,360.966L191.142,360.966z"/>
	</g>
	<g>
		<path d="M160.906,322.859c-2.625,0-5.249,0-7.874,0c-3.386,0-3.386,5.25,0,5.25c2.625,0,5.249,0,7.874,0    C164.292,328.109,164.292,322.859,160.906,322.859L160.906,322.859z"/>
	</g>
	<g>
		<path d="M224,322.859c-2.624,0-5.247,0-7.871,0c-3.386,0-3.386,5.25,0,5.25c2.624,0,5.247,0,7.871,0    C227.386,328.109,227.386,322.859,224,322.859L224,322.859z"/>
	</g>
	<g>
		<path d="M210.121,307.594c1.855-1.856,3.711-3.713,5.566-5.568c2.396-2.396-1.317-6.109-3.713-3.713    c-1.855,1.856-3.711,3.713-5.566,5.568C204.013,306.277,207.726,309.99,210.121,307.594L210.121,307.594z"/>
	</g>
	<g>
		<path d="M165.061,352.653c1.854-1.855,3.709-3.711,5.564-5.565c2.396-2.396-1.316-6.108-3.713-3.713    c-1.854,1.855-3.709,3.711-5.564,5.565C158.952,351.337,162.664,355.049,165.061,352.653L165.061,352.653z"/>
	</g>
	<g>
		<path d="M170.626,303.881c-1.855-1.855-3.711-3.712-5.565-5.568c-2.396-2.396-6.107,1.316-3.713,3.713    c1.855,1.855,3.711,3.712,5.565,5.568C169.309,309.99,173.021,306.277,170.626,303.881L170.626,303.881z"/>
	</g>
	<g>
		<path d="M215.688,348.94c-1.855-1.854-3.71-3.71-5.564-5.565c-2.396-2.396-6.108,1.316-3.713,3.713    c1.855,1.854,3.71,3.71,5.564,5.565C214.371,355.049,218.083,351.337,215.688,348.94L215.688,348.94z"/>
	</g>
	<g>
		<path d="M312.105-114.22c0-3.075,0-6.149,0-9.225c0-3.386-5.25-3.386-5.25,0c0,3.075,0,6.149,0,9.225    C306.855-110.834,312.105-110.834,312.105-114.22L312.105-114.22z"/>
	</g>
	<g>
		<path d="M278.016-85.384c-3.074,0-6.149,0-9.224,0c-3.386,0-3.386,5.25,0,5.25c3.074,0,6.149,0,9.224,0    C281.401-80.134,281.401-85.384,278.016-85.384L278.016-85.384z"/>
	</g>
	<g>
		<path d="M333.808-103.371c2.174-2.176,4.348-4.351,6.522-6.525c2.396-2.396-1.317-6.109-3.713-3.713    c-2.174,2.176-4.348,4.351-6.522,6.525C327.699-104.688,331.412-100.975,333.808-103.371L333.808-103.371z"/>
	</g>
	<g>
		<path d="M287.566-107.086c-2.175-2.174-4.35-4.349-6.523-6.523c-2.396-2.396-6.108,1.316-3.713,3.713    c2.175,2.174,4.35,4.349,6.523,6.523C286.25-100.978,289.962-104.689,287.566-107.086L287.566-107.086z"/>
	</g>
	<path d="M329.033-95.264c-6.354-9.094-18.083-13.5-28.592-8.86c-10.339,4.564-15.24,14.83-13.732,25.775   c0.295,2.144,3.077,2.269,4.388,1.158c1.477-1.252,2.987-1.775,4.813-2.152c2.977-0.221,7.014,0.118,7.944,3.545   c0.685,2.52,4.366,2.495,5.062,0c2.284-8.181,8.518-16.498,17.85-15.516C328.694-91.11,330.114-93.716,329.033-95.264z    M305.643-82.074c-2.743-2.113-6.611-2.814-10.137-2.486c-0.1,0.01-0.188,0.036-0.281,0.055c-0.137,0.007-0.272,0.011-0.417,0.039   c-1.152,0.225-2.2,0.534-3.188,0.94c0.799-14.694,18.609-22.2,29.599-12.736C314.142-94.714,308.724-88.812,305.643-82.074z"/>
	<path d="M346.247-74.831c2.12-8.771-2.864-16.834-11.483-20.076c-12.885-4.846-23.955,1.62-29.121,12.849   c-2.744-2.112-6.612-2.822-10.137-2.494c-0.123,0.012-0.232,0.039-0.347,0.063c-0.116,0.006-0.229,0.002-0.352,0.023   c-11.493,2.022-15.826,17.765-6.434,25.189c2.661,2.104,5.687,2.275,8.89,2.275c5.184,0,10.368,0,15.552,0   c9.605,0,19.211,0,28.816,0C352.459-57,354.702-71.396,346.247-74.831z M341.741-62.196c-1.575,0.095-3.186,0.196-4.763,0.196   c-8.376,0-16.752,0-25.128,0c-5.671,0-11.342,0-17.013,0c-3.932,0-5.907-4.079-6.254-7.525c-0.51-5.065,2.561-8.764,7.339-9.721   c2.976-0.219,7.002,0.075,7.932,3.497c0.685,2.52,4.366,2.471,5.062-0.024c0.861-3.085,2.37-5.98,4.132-8.637   c4.629-6.978,11.539-7.908,19.207-5.822c7.73,2.104,11.025,9.277,8.119,16.537c-0.671,1.677,0.992,3.337,2.531,3.42   C348.534-69.972,346.678-62.493,341.741-62.196z"/>
	<g>
		<path d="M407.429-95.376c2.819-0.263,7.065-0.164,7.988,3.238c0.781,2.88,4.989,2.851,5.785,0c0.853-3.055,2.35-5.905,4.095-8.536    c4.534-6.834,11.287-7.68,18.784-5.642c7.553,2.054,10.687,9.005,7.855,16.076c-0.768,1.916,1.134,3.702,2.893,3.798    c5.137,0.278,3.28,6.966-1.163,7.234c-1.575,0.095-3.186,0-4.763,0c-8.376,0-16.752,0-25.128,0c-5.671,0-11.342,0-17.013,0    c-3.707,0-5.555-3.713-5.881-6.954c-0.505-5.014,2.553-8.479,7.345-9.322c3.806-0.67,2.188-6.451-1.596-5.786    c-11.756,2.068-16.203,18.154-6.598,25.747c2.747,2.172,5.844,2.315,9.155,2.315c5.184,0,10.368,0,15.552,0    c9.605,0,19.211,0,28.816,0c12.563,0,13.961-18.547,1.272-19.234c0.964,1.266,1.929,2.531,2.893,3.798    c3.984-9.951-1.294-19.477-10.934-23.1c-14.849-5.581-27.379,3.71-31.371,18.01c1.929,0,3.856,0,5.785,0    c-1.649-6.08-8.123-8.169-13.773-7.643C403.61-101.02,403.575-95.017,407.429-95.376z"/>
	</g>
	<g>
		<path d="M405.861-97.272c4.244-0.396,9.601,0.574,10.896,5.353c0.098,0.36,0.623,0.356,0.723,0    c0.941-3.376,2.581-6.576,4.513-9.482c5.354-8.054,13.415-9.533,22.394-7.13c9.175,2.454,13.669,11.27,10.159,20.032    c-0.096,0.239,0.142,0.463,0.361,0.475c7.323,0.375,7.776,10.495,1.254,12.659c-2.04,0.676-5.032,0.281-7.139,0.281    c-8.69,0-17.38,0-26.069,0c-5.955,0-11.911,0-17.866,0c-5.423,0-8.266-5.165-8.73-9.946c-0.612-6.285,3.547-11.201,9.604-12.253    c0.476-0.083,0.273-0.806-0.199-0.724c-6.644,1.155-10.409,6.326-10.155,12.977c0.205,5.4,3.842,10.421,9.453,10.696    c12.337,0.604,24.85,0,37.2,0c4.109,0,8.827,0.657,12.906-0.09c4.956-0.907,9.195-7.47,4.91-11.893    c-1.105-1.141-4.324-3.19-4.797-2.008c0.514-1.284,0.794-2.666,1.002-4.027c0.752-4.942-0.656-9.719-4.363-13.131    c-4.242-3.905-12.212-5.845-17.806-4.962c-5.843,0.922-10.065,4.601-13.261,9.408c-1.279,1.925-2.272,4.039-3.142,6.175    c-0.286,0.704-0.536,1.421-0.771,2.143c-0.289,0.886,0.501,0.463,0.471,0.365c-1.55-4.97-7.008-6.091-11.549-5.668    C405.384-97.978,405.38-97.228,405.861-97.272z"/>
	</g>
	<g>
		<defs>
			<path id="SVGID_1_" d="M406.667-97.647c9.572-1.293,11.256,5.628,11.256,5.628s5.298-19.491,20.515-18.108     c25.244,2.294,17.276,21.727,17.276,21.727s5.398,0.12,6.224,5.445c0.354,2.272-0.175,8.247-7.43,8.245h-48.645     C394.838-74.711,392.356-95.715,406.667-97.647z"/>
		</defs>
		<clipPath id="SVGID_2_">
			<use xlink:href="#SVGID_1_" overflow="visible"/>
		</clipPath>
		<g clip-path="url(#SVGID_2_)">
			<path d="M392.058-72.254c8.812-14.376,17.624-28.752,26.437-43.128c0.828-1.351-1.291-2.581-2.115-1.236     c-8.812,14.376-17.625,28.752-26.437,43.128C389.114-72.14,391.233-70.909,392.058-72.254L392.058-72.254z"/>
		</g>
		<g clip-path="url(#SVGID_2_)">
			<path d="M399.652-72.254c8.812-14.376,17.623-28.752,26.435-43.128c0.828-1.351-1.291-2.581-2.115-1.236     c-8.812,14.376-17.623,28.752-26.435,43.128C396.709-72.14,398.828-70.909,399.652-72.254L399.652-72.254z"/>
		</g>
		<g clip-path="url(#SVGID_2_)">
			<path d="M407.248-72.254c8.812-14.376,17.625-28.752,26.437-43.128c0.828-1.351-1.291-2.581-2.115-1.236     c-8.812,14.376-17.624,28.752-26.437,43.128C404.305-72.14,406.424-70.909,407.248-72.254L407.248-72.254z"/>
		</g>
		<g clip-path="url(#SVGID_2_)">
			<path d="M414.842-72.254c8.812-14.376,17.625-28.752,26.438-43.128c0.828-1.351-1.291-2.581-2.115-1.236     c-8.812,14.376-17.625,28.752-26.438,43.128C411.898-72.14,414.018-70.909,414.842-72.254L414.842-72.254z"/>
		</g>
		<g clip-path="url(#SVGID_2_)">
			<path d="M422.437-72.254c8.812-14.376,17.624-28.752,26.436-43.128c0.828-1.351-1.291-2.581-2.115-1.236     c-8.812,14.376-17.624,28.752-26.436,43.128C419.493-72.14,421.612-70.909,422.437-72.254L422.437-72.254z"/>
		</g>
		<g clip-path="url(#SVGID_2_)">
			<path d="M430.03-72.254c8.812-14.376,17.625-28.752,26.438-43.128c0.828-1.351-1.291-2.581-2.115-1.236     c-8.812,14.376-17.625,28.752-26.438,43.128C427.087-72.14,429.206-70.909,430.03-72.254L430.03-72.254z"/>
		</g>
		<g clip-path="url(#SVGID_2_)">
			<path d="M437.628-72.254c8.812-14.376,17.622-28.752,26.434-43.128c0.828-1.351-1.291-2.581-2.115-1.236     c-8.812,14.376-17.622,28.752-26.434,43.128C434.685-72.14,436.804-70.909,437.628-72.254L437.628-72.254z"/>
		</g>
		<g clip-path="url(#SVGID_2_)">
			<path d="M445.222-72.254c8.812-14.376,17.623-28.752,26.435-43.128c0.828-1.351-1.291-2.581-2.115-1.236     c-8.812,14.376-17.623,28.752-26.435,43.128C442.278-72.14,444.397-70.909,445.222-72.254L445.222-72.254z"/>
		</g>
		<g clip-path="url(#SVGID_2_)">
			<path d="M452.815-72.254c8.813-14.376,17.626-28.752,26.438-43.128c0.828-1.351-1.291-2.581-2.115-1.236     c-8.812,14.376-17.626,28.752-26.438,43.128C449.872-72.14,451.991-70.909,452.815-72.254L452.815-72.254z"/>
		</g>
		<g clip-path="url(#SVGID_2_)">
			<path d="M460.408-72.254c8.812-14.376,17.626-28.752,26.438-43.128c0.828-1.351-1.291-2.581-2.115-1.236     c-8.813,14.376-17.626,28.752-26.438,43.128C457.465-72.14,459.584-70.909,460.408-72.254L460.408-72.254z"/>
		</g>
	</g>
	<g>
		<path d="M647.601-95.375c2.818-0.262,7.063-0.162,7.986,3.239c0.781,2.88,4.989,2.851,5.785,0c0.853-3.055,2.35-5.904,4.095-8.535    c4.533-6.834,11.285-7.682,18.783-5.643c7.554,2.054,10.689,9.006,7.857,16.078c-0.768,1.916,1.135,3.703,2.893,3.798    c5.137,0.277,3.277,6.963-1.165,7.23c-1.575,0.095-3.186,0-4.763,0c-8.376,0-16.751,0-25.127,0c-5.671,0-11.342,0-17.012,0    c-3.707,0-5.555-3.712-5.881-6.954c-0.504-5.013,2.555-8.478,7.346-9.32c3.806-0.67,2.188-6.451-1.596-5.786    c-11.755,2.068-16.205,18.152-6.6,25.745c2.747,2.172,5.844,2.315,9.155,2.315c5.184,0,10.368,0,15.552,0    c9.605,0,19.21,0,28.814,0c12.562,0,13.964-18.545,1.275-19.23c0.964,1.266,1.929,2.531,2.893,3.798    c3.985-9.952-1.296-19.478-10.935-23.102c-14.849-5.582-27.379,3.711-31.371,18.01c1.929,0,3.856,0,5.785,0    c-1.648-6.079-8.122-8.169-13.771-7.643C643.782-101.02,643.747-95.017,647.601-95.375z"/>
	</g>
	<g>
		<path d="M774.267-53.084c2.269-3.698,4.536-7.396,6.805-11.094c1.775-2.895-2.767-5.53-4.533-2.65    c-2.269,3.698-4.536,7.396-6.805,11.094C767.958-52.84,772.5-50.204,774.267-53.084L774.267-53.084z"/>
	</g>
	<g>
		<path d="M785.071-53.084c2.269-3.698,4.536-7.396,6.805-11.094c1.775-2.895-2.767-5.53-4.533-2.65    c-2.269,3.698-4.536,7.396-6.805,11.094C778.763-52.84,783.305-50.204,785.071-53.084L785.071-53.084z"/>
	</g>
	<g>
		<path d="M795.267-53.084c2.269-3.698,4.536-7.396,6.805-11.094c1.775-2.895-2.767-5.53-4.533-2.65    c-2.269,3.698-4.536,7.396-6.805,11.094C788.958-52.84,793.5-50.204,795.267-53.084L795.267-53.084z"/>
	</g>
	<g>
		<path d="M765.581-95.375c2.818-0.262,7.063-0.162,7.986,3.239c0.781,2.88,4.989,2.851,5.785,0c0.853-3.055,2.35-5.904,4.095-8.535    c4.533-6.834,11.285-7.682,18.783-5.643c7.554,2.054,10.689,9.006,7.857,16.078c-0.768,1.916,1.135,3.703,2.893,3.798    c5.137,0.277,3.277,6.963-1.165,7.23c-1.575,0.095-3.186,0-4.763,0c-8.376,0-16.751,0-25.127,0c-5.671,0-11.342,0-17.012,0    c-3.707,0-5.555-3.712-5.881-6.954c-0.504-5.013,2.555-8.478,7.346-9.32c3.806-0.67,2.188-6.451-1.596-5.786    c-11.755,2.068-16.205,18.152-6.6,25.745c2.747,2.172,5.844,2.315,9.155,2.315c5.184,0,10.368,0,15.552,0    c9.605,0,19.21,0,28.814,0c12.562,0,13.964-18.545,1.275-19.23c0.964,1.266,1.929,2.531,2.893,3.798    c3.985-9.952-1.296-19.478-10.935-23.102c-14.849-5.582-27.379,3.711-31.371,18.01c1.929,0,3.856,0,5.785,0    c-1.648-6.079-8.122-8.169-13.771-7.643C761.763-101.02,761.728-95.017,765.581-95.375z"/>
	</g>
	<g>
		<path d="M59.733,313.675c-4.946,7-9.894,14-14.84,20.999c0.756-0.433,1.511-0.866,2.267-1.3c1.729-0.011,2.049,1.119,0.405-0.524    c-1.209-1.209-2.418-2.419-3.627-3.628c-1.641-1.641-3.281-3.282-4.922-4.923c-2.396-2.396-6.108,1.316-3.713,3.713    c2.851,2.85,5.7,5.7,8.55,8.55c2.061,2.061,4.05,2.919,6.01,0.146c4.801-6.794,9.603-13.588,14.403-20.382    C66.226,313.553,61.67,310.935,59.733,313.675L59.733,313.675z"/>
	</g>
</g>
</svg>